{"glyphs":{":":{"x_min":0,"x_max":287,"ha":287,"o":"m 63 129 q 91 129 107 112 q 123 95 123 66 q 123 32 103 11 q 83 -9 51 -9 q 21 -9 4 7 q -12 23 -12 53 q -12 88 8 108 q 28 129 63 129 z m 168 458 q 196 458 212 441 q 228 424 228 395 q 228 361 208 340 q 189 320 156 320 q 126 320 109 336 q 93 352 93 382 q 93 417 113 438 q 133 458 168 458 z"},"$":{"x_min":0,"x_max":528,"ha":528,"o":"m 252 320 l 183 93 q 245 95 282 129 q 320 163 320 216 q 320 247 304 271 q 288 295 252 320 z m 291 631 q 246 627 221 603 q 196 579 196 539 q 196 518 205 501 q 214 484 238 462 z m 315 714 l 333 772 q 335 779 339 781 q 343 784 352 784 l 380 784 q 386 784 389 782 q 392 781 392 778 q 392 774 390 767 l 372 714 q 429 700 454 682 q 480 664 480 639 q 480 615 472 600 q 463 584 452 584 q 447 584 415 606 q 384 628 349 633 l 287 427 q 354 381 385 333 q 417 286 417 232 q 417 129 347 68 q 276 7 156 7 l 128 -94 q 123 -112 118 -119 q 112 -125 101 -125 l 77 -125 q 72 -125 68 -122 q 64 -119 64 -115 q 64 -112 64 -109 q 65 -105 66 -102 l 99 7 q 36 11 8 26 q -20 41 -20 70 q -20 89 -11 103 q -1 117 11 117 q 16 117 53 105 q 90 94 125 91 l 203 351 q 153 387 127 429 q 102 471 102 517 q 102 599 161 654 q 221 709 315 714 z"},"?":{"x_min":0,"x_max":441,"ha":441,"o":"m 127 129 q 155 129 171 112 q 187 96 187 66 q 187 32 167 12 q 148 -9 116 -9 q 85 -9 69 7 q 52 23 52 53 q 52 88 72 109 q 92 129 127 129 z m 142 638 q 142 661 147 677 q 151 692 160 697 q 183 709 212 717 q 240 724 266 724 q 328 724 366 684 q 404 644 404 578 q 404 502 307 381 q 259 323 239 290 q 225 267 211 239 q 198 210 195 206 q 189 197 180 195 q 172 192 145 192 q 124 192 116 198 q 109 205 109 223 q 109 247 130 287 q 151 327 191 380 q 196 386 205 398 q 290 510 290 562 q 290 585 274 599 q 258 614 233 614 q 214 614 192 605 q 171 596 168 596 q 154 596 148 605 q 142 614 142 638 z"},"<":{"x_min":0,"x_max":833,"ha":833,"o":"m 704 574 l 704 484 l 248 298 l 704 112 l 704 23 l 129 259 l 129 337 z"},"'":{"x_min":0,"x_max":163,"ha":163,"o":"m 42 701 l 122 701 l 122 429 l 42 429 z"},"=":{"x_min":0,"x_max":833,"ha":833,"o":"m 124 238 l 709 238 l 709 157 l 124 157 z m 124 440 l 709 440 l 709 358 l 124 358 z"},"a":{"x_min":0,"x_max":546,"ha":546,"o":"m 373 355 q 360 365 347 370 q 334 375 321 375 q 292 375 255 350 q 217 325 183 282 q 152 243 134 198 q 115 154 115 121 q 115 97 124 86 q 132 74 149 74 q 197 74 254 146 q 311 217 373 355 z m 323 170 q 271 77 220 34 q 168 -9 110 -9 q 82 -9 61 -1 q 41 7 29 22 q 4 9 -27 2 q -58 -5 -100 -7 l -81 59 q -54 61 -32 66 q -11 71 6 81 q 4 91 3 102 q 2 113 2 126 q 2 167 20 215 q 37 263 69 309 q 118 379 177 416 q 236 453 300 453 q 332 453 354 444 q 377 435 398 414 l 405 436 q 411 456 417 461 q 424 467 436 467 q 470 467 495 455 q 520 444 520 428 q 520 423 499 382 q 478 341 462 304 q 430 230 413 178 q 397 125 397 97 q 397 78 409 70 q 421 62 465 59 l 446 -7 l 437 -7 q 360 -7 329 9 q 298 25 298 64 q 298 81 304 106 q 310 131 323 170 z"},"L":{"x_min":0,"x_max":656,"ha":656,"o":"m 333 68 q 295 30 242 10 q 189 -9 124 -9 q 42 -9 -5 25 q -52 58 -52 117 q -52 178 -5 217 q 42 257 114 257 q 159 257 205 241 q 252 225 298 194 q 315 235 335 300 q 354 364 381 470 q 320 479 288 505 q 257 532 257 575 q 257 607 271 626 q 285 646 309 647 q 314 609 338 587 q 362 564 407 556 q 437 655 489 707 q 542 759 612 759 q 666 759 695 733 q 724 707 724 659 q 724 586 664 533 q 604 481 503 468 q 481 353 454 274 q 428 196 389 133 q 428 101 477 81 q 526 62 575 59 l 556 -7 l 551 -7 q 491 -7 437 12 q 383 30 333 68 z m 252 124 q 221 147 183 160 q 146 173 110 173 q 74 173 51 158 q 29 143 29 119 q 29 94 53 79 q 77 65 119 65 q 158 65 190 79 q 222 93 252 124 z m 522 560 q 576 573 612 607 q 649 642 649 674 q 649 688 640 697 q 632 705 617 705 q 588 705 563 667 q 539 630 522 560 z"},"3":{"x_min":0,"x_max":528,"ha":528,"o":"m 181 634 q 177 647 176 657 q 174 667 174 677 q 174 707 192 719 q 210 732 256 732 q 336 732 391 684 q 446 637 446 568 q 446 518 419 479 q 392 439 338 412 l 338 406 q 385 381 408 344 q 431 306 431 256 q 431 146 348 69 q 264 -9 146 -9 q 100 -9 61 1 q 22 12 -2 30 q -12 37 -16 51 q -21 65 -21 89 q -21 108 -15 121 q -8 135 0 135 q 0 135 44 115 q 88 96 127 96 q 210 96 260 140 q 310 184 310 255 q 310 303 286 324 q 263 345 192 350 q 176 352 168 361 q 161 370 161 390 q 161 423 196 431 q 208 433 215 435 q 277 451 309 481 q 341 510 341 552 q 341 592 312 615 q 282 637 230 637 q 220 637 207 636 q 194 635 181 634 z"},";":{"x_min":0,"x_max":287,"ha":287,"o":"m 27 85 q 27 107 31 115 q 35 124 46 129 q 58 135 80 140 q 101 145 112 145 q 122 145 127 140 q 133 135 133 125 q 133 109 121 81 q 109 53 88 18 q 69 -13 52 -32 q 34 -51 25 -51 q 14 -51 7 -45 q -1 -40 -1 -31 q -1 -28 4 -17 q 27 34 27 85 z m 168 458 q 196 458 212 441 q 228 424 228 395 q 228 361 208 340 q 189 320 156 320 q 126 320 109 336 q 93 352 93 382 q 93 417 113 438 q 133 458 168 458 z"},"J":{"x_min":0,"x_max":527,"ha":527,"o":"m 294 250 q 332 380 355 490 q 379 600 379 629 q 379 644 371 653 q 364 662 352 662 q 333 662 314 641 q 294 619 269 571 q 239 516 222 456 q 204 396 204 353 q 204 305 226 278 q 249 250 287 250 z m 203 -2 l 193 -2 q 110 -2 55 -32 q 1 -62 1 -104 q 1 -125 12 -137 q 23 -148 44 -148 q 86 -148 128 -109 q 171 -70 203 -2 z m 270 181 q 183 186 135 238 q 88 290 88 381 q 88 447 111 515 q 134 582 176 636 q 220 693 277 726 q 334 759 389 759 q 443 759 469 726 q 495 693 495 625 q 495 534 459 378 q 423 223 360 59 q 366 59 380 57 q 395 56 401 56 q 411 56 426 57 q 441 59 446 59 l 427 -7 q 418 -7 400 -9 q 381 -10 372 -10 q 366 -10 350 -9 q 335 -7 327 -7 q 271 -117 197 -176 q 122 -234 37 -234 q -26 -234 -62 -202 q -99 -171 -99 -117 q -99 -34 -25 19 q 50 71 169 71 q 197 71 210 71 q 224 70 234 70 z"},"V":{"x_min":0,"x_max":639,"ha":639,"o":"m 611 499 q 553 272 435 132 q 316 -9 192 -9 q 119 -9 80 42 q 40 93 40 188 q 40 289 74 414 q 108 540 166 645 q 207 721 227 740 q 247 759 275 759 q 312 759 335 750 q 358 741 358 726 q 358 716 326 668 q 295 619 273 576 q 220 470 191 371 q 162 272 162 199 q 162 159 179 138 q 196 116 227 116 q 310 116 396 240 q 483 365 531 561 q 506 596 497 620 q 488 643 488 669 q 488 708 511 733 q 534 759 568 759 q 602 759 620 731 q 638 703 638 651 q 638 631 636 614 q 634 597 629 580 q 643 572 659 563 q 676 554 696 545 l 665 475 q 661 477 642 485 q 623 493 611 499 z"},"\"":{"x_min":0,"x_max":314,"ha":314,"o":"m 193 701 l 273 701 l 273 429 l 193 429 z m 42 701 l 122 701 l 122 429 l 42 429 z"},"7":{"x_min":0,"x_max":528,"ha":528,"o":"m 399 615 l 116 615 q 94 615 85 622 q 77 628 77 644 q 77 657 85 678 q 94 700 103 713 q 111 723 131 727 q 150 731 212 731 l 254 731 q 393 731 457 723 q 522 716 522 700 q 522 676 426 492 q 331 307 266 174 q 252 146 232 100 q 184 -8 145 -8 q 118 -8 90 10 q 63 29 63 49 q 63 68 98 125 l 102 132 z"},"S":{"x_min":0,"x_max":651,"ha":651,"o":"m 356 28 q 237 60 172 74 q 107 89 84 89 q 61 89 52 82 q 42 74 42 57 q 42 24 86 2 q 130 -20 201 -20 q 250 -20 288 -8 q 327 4 356 28 z m 457 8 q 409 -44 344 -71 q 279 -98 201 -98 q 87 -98 20 -55 q -47 -12 -47 58 q -47 111 -15 137 q 18 164 82 164 q 135 164 309 117 q 370 100 404 91 q 420 113 430 141 q 440 169 440 194 q 440 233 420 261 q 400 289 326 331 q 240 380 210 421 q 179 462 179 522 q 179 626 259 692 q 339 759 464 759 q 544 759 595 725 q 646 691 646 639 q 646 611 630 594 q 614 578 586 578 l 579 578 q 574 626 542 649 q 510 673 450 673 q 378 673 333 638 q 288 603 288 547 q 288 483 389 428 q 402 420 408 417 q 483 375 517 325 q 552 275 552 210 q 552 171 540 137 q 529 103 505 72 q 519 68 535 65 q 551 62 570 59 l 551 -7 q 520 -4 498 -1 q 476 3 457 8 z"},"}":{"x_min":0,"x_max":500,"ha":500,"o":"m 74 721 l 96 721 q 152 721 184 716 q 215 710 237 697 q 265 681 276 650 q 287 620 287 550 l 287 429 q 287 359 312 330 q 338 302 400 302 q 403 302 410 302 q 417 303 421 303 l 421 216 q 417 216 410 216 q 403 217 400 217 q 338 217 313 188 q 287 159 287 89 l 287 -32 q 287 -102 276 -132 q 265 -162 237 -178 q 216 -191 184 -197 q 152 -202 96 -202 l 74 -202 l 74 -116 q 78 -116 85 -117 q 93 -117 96 -117 q 149 -117 168 -97 q 187 -76 187 -11 l 187 106 q 187 181 209 213 q 231 245 287 259 q 231 272 209 304 q 187 336 187 412 l 187 530 q 187 594 168 615 q 150 635 97 635 q 94 635 86 634 q 78 634 74 634 z"},"Z":{"x_min":0,"x_max":578,"ha":578,"o":"m 285 16 q 264 19 247 20 q 230 21 217 21 q 131 21 70 -17 q 10 -56 10 -106 q 10 -127 26 -139 q 42 -152 69 -152 q 125 -152 184 -106 q 244 -61 285 16 z m 374 345 q 416 310 437 263 q 459 216 459 161 q 459 144 454 120 q 449 95 440 64 l 497 59 l 478 -7 l 411 -2 q 345 -112 257 -171 q 169 -230 72 -230 q 1 -230 -41 -198 q -83 -166 -83 -112 q -83 -30 4 29 q 91 87 223 87 q 244 87 266 85 q 288 84 312 81 q 323 109 328 136 q 333 164 333 191 q 333 223 326 251 q 319 279 305 306 q 276 296 252 291 q 228 286 208 286 q 173 286 154 299 q 135 312 135 337 q 135 366 160 384 q 186 402 228 402 q 246 402 263 398 q 281 395 299 387 q 361 429 392 476 q 424 522 424 573 q 424 622 396 648 q 369 675 318 675 q 273 675 245 651 q 218 627 218 589 q 218 578 220 569 q 222 559 225 550 q 216 542 208 539 q 199 535 187 535 q 161 535 145 553 q 129 571 129 599 q 129 665 189 712 q 249 759 337 759 q 433 759 490 709 q 547 660 547 577 q 547 509 502 448 q 457 388 374 345 z"},"x":{"x_min":0,"x_max":416,"ha":416,"o":"m -100 -7 l -81 59 l -73 59 q -29 59 18 83 q 65 107 112 154 q 104 184 93 234 q 58 385 23 391 q 22 395 22 402 q 22 424 40 441 q 59 458 84 458 q 125 458 152 415 q 178 372 191 284 q 250 393 281 425 q 313 458 349 458 q 370 458 384 444 q 398 430 398 409 q 398 401 396 394 q 393 386 388 378 q 381 379 379 380 q 376 380 373 380 q 344 380 305 330 q 266 279 217 181 q 229 127 256 98 q 284 69 335 59 l 316 -7 q 315 -7 308 -8 q 301 -9 295 -9 q 241 -9 198 15 q 154 39 137 78 q 93 38 38 15 q -16 -9 -62 -9 q -72 -9 -97 -7 q -99 -7 -100 -7 z"},")":{"x_min":0,"x_max":417,"ha":417,"o":"m 206 431 q 206 484 197 529 q 188 575 168 617 q 157 641 139 674 q 120 708 120 717 q 120 730 139 745 q 159 759 173 759 q 186 759 199 745 q 212 730 229 699 q 263 633 279 564 q 296 496 296 420 q 296 290 247 162 q 198 35 111 -62 q 52 -127 -16 -175 q -85 -223 -107 -223 q -121 -223 -132 -204 q -142 -184 -142 -163 q -142 -146 -79 -106 q -15 -65 28 -20 q 114 70 160 187 q 206 304 206 431 z"},"&":{"x_min":0,"x_max":766,"ha":766,"o":"m 587 223 q 530 112 431 51 q 332 -10 209 -10 q 109 -10 52 37 q -6 83 -6 164 q -6 253 60 319 q 126 384 237 403 q 208 417 193 445 q 177 473 177 511 q 177 555 201 602 q 225 649 266 686 q 306 722 356 740 q 406 759 460 759 q 504 759 530 741 q 556 724 556 694 q 556 681 551 668 q 545 655 535 642 q 520 652 503 657 q 487 662 468 662 q 402 662 349 608 q 296 554 296 489 q 296 465 306 451 q 316 436 340 427 q 343 426 351 423 q 374 414 374 406 q 374 383 364 368 q 354 352 339 352 l 326 352 q 247 352 188 299 q 130 246 130 178 q 130 134 159 110 q 188 86 241 86 q 317 86 381 124 q 445 161 474 223 l 387 223 q 376 223 371 226 q 366 228 366 233 q 366 240 367 245 q 369 250 372 257 l 387 286 q 395 301 401 304 q 408 308 426 308 l 711 308 q 720 308 723 304 q 727 301 727 295 q 727 294 725 290 q 724 285 721 279 l 702 237 q 698 229 692 226 q 686 223 668 223 z"},"_":{"x_min":0,"x_max":500,"ha":500,"o":"m 0 -152 l 500 -152 l 500 -236 l 0 -236 z"},"v":{"x_min":0,"x_max":444,"ha":444,"o":"m 32 24 q 7 10 -26 2 q -59 -5 -100 -7 l -81 59 q -54 61 -32 66 q -11 71 6 81 q 2 97 0 109 q -2 122 -2 133 q -2 175 18 241 q 37 306 72 379 l 78 392 q 112 463 141 463 q 172 463 198 449 q 223 435 223 417 q 223 410 203 372 q 184 334 170 305 q 138 236 122 187 q 106 138 106 109 q 106 91 116 79 q 125 68 141 68 q 182 68 234 138 q 286 208 309 305 q 285 308 272 324 q 259 341 259 371 q 259 407 279 430 q 299 453 330 453 q 364 453 383 431 q 402 408 402 368 q 402 319 374 250 q 346 181 298 113 q 253 49 209 20 q 166 -9 116 -9 q 87 -9 64 0 q 42 9 32 24 z"},"O":{"x_min":0,"x_max":623,"ha":623,"o":"m 463 456 q 441 450 429 447 q 416 445 405 445 q 344 445 309 486 q 273 527 272 600 q 208 517 174 423 q 139 329 139 238 q 139 172 162 136 q 184 99 224 99 q 288 99 352 194 q 416 290 463 456 z m 481 549 l 481 579 q 481 626 461 653 q 441 680 406 680 q 378 680 361 662 q 344 644 344 615 q 344 580 368 558 q 392 535 430 535 q 440 535 452 538 q 463 541 481 549 z m 573 501 q 565 416 542 341 q 518 266 477 196 q 417 96 349 44 q 280 -9 209 -9 q 120 -9 69 58 q 17 125 17 242 q 17 353 69 475 q 121 597 200 672 q 232 703 268 719 q 304 734 350 738 q 375 750 395 755 q 415 760 433 760 q 492 760 528 717 q 564 675 570 598 q 590 616 604 630 q 618 644 631 658 l 675 597 q 655 570 630 546 q 604 522 573 501 z"},"(":{"x_min":0,"x_max":417,"ha":417,"o":"m 133 105 q 133 54 142 9 q 152 -37 172 -81 q 183 -105 201 -138 q 220 -170 220 -180 q 220 -194 201 -208 q 181 -223 167 -223 q 154 -223 141 -209 q 128 -194 111 -162 q 77 -96 60 -27 q 43 42 43 116 q 43 246 92 374 q 141 501 228 598 q 287 663 356 711 q 425 759 447 759 q 461 759 471 740 q 481 721 481 700 q 481 683 418 642 q 355 602 312 556 q 226 465 179 348 q 133 231 133 105 z"},"C":{"x_min":0,"x_max":591,"ha":591,"o":"m 134 -237 q 50 -237 1 -178 q -47 -119 -47 -16 q -47 104 16 258 q 79 411 183 540 q 266 643 354 701 q 442 759 514 759 q 573 759 605 725 q 637 692 637 630 q 637 575 611 525 q 585 475 536 433 q 508 410 475 394 q 442 378 425 378 q 411 378 396 399 q 381 420 381 437 q 381 449 412 461 q 443 472 464 485 q 505 510 527 546 q 549 582 549 623 q 549 651 538 665 q 527 679 505 679 q 463 679 403 627 q 344 576 279 483 q 184 347 132 214 q 79 81 79 -20 q 79 -73 98 -99 q 117 -126 154 -126 q 203 -126 256 -89 q 309 -52 362 20 q 371 31 382 51 q 398 79 410 79 q 424 79 440 62 q 457 46 457 32 q 457 21 443 -2 q 430 -25 405 -57 q 335 -145 266 -191 q 197 -237 134 -237 z"},"W":{"x_min":0,"x_max":883,"ha":883,"o":"m 367 101 q 322 45 278 18 q 233 -9 185 -9 q 114 -9 77 44 q 40 98 40 201 q 40 300 72 417 q 104 533 161 635 q 195 697 223 728 q 251 759 273 759 q 300 759 327 746 q 354 734 354 722 q 354 715 322 668 q 291 621 265 568 q 219 474 193 372 q 166 270 166 195 q 166 141 177 119 q 188 96 214 96 q 237 96 270 123 q 303 149 341 198 l 341 201 q 337 238 337 254 q 337 303 351 353 q 365 403 392 450 q 417 494 445 517 q 473 540 501 540 q 531 540 549 521 q 566 502 566 469 q 566 418 534 361 q 501 303 448 263 l 448 246 q 448 188 469 154 q 491 119 526 119 q 577 119 648 239 q 719 359 775 550 q 744 578 731 603 q 718 629 718 664 q 718 707 740 733 q 762 759 797 759 q 835 759 858 729 q 881 699 881 648 q 881 632 878 615 q 876 599 870 578 q 886 569 900 562 q 914 555 927 549 l 893 477 q 882 481 874 485 q 865 489 857 493 q 784 252 690 122 q 597 -9 499 -9 q 454 -9 421 18 q 389 45 367 101 z"},"A":{"x_min":0,"x_max":660,"ha":660,"o":"m 447 239 q 367 115 288 53 q 209 -9 133 -9 q 72 -9 35 32 q -2 74 -2 143 q -2 252 73 379 q 148 505 275 605 q 357 671 461 715 q 564 760 613 760 q 631 760 650 735 q 668 709 668 693 q 668 682 642 680 q 627 680 617 678 q 569 669 521 646 q 473 623 416 581 q 354 535 298 473 q 243 412 193 334 q 158 278 142 237 q 126 196 126 162 q 126 127 143 107 q 159 88 189 88 q 251 88 332 175 q 413 263 493 418 q 531 492 566 585 q 571 597 573 602 q 582 624 592 630 q 602 637 620 637 q 646 637 667 626 q 687 614 687 599 q 687 596 658 531 q 629 466 603 400 q 558 287 532 209 q 507 131 507 104 q 507 81 521 71 q 536 62 579 59 l 560 -7 l 547 -7 q 470 -7 436 13 q 402 32 402 76 q 402 111 445 233 z"},"f":{"x_min":0,"x_max":431,"ha":431,"o":"m 143 205 q 193 253 238 317 q 282 381 324 463 q 351 517 367 567 q 384 618 384 637 q 384 653 377 662 q 369 671 355 671 q 320 671 271 565 q 223 459 143 205 z m 112 106 q 88 24 74 -38 q 61 -100 61 -122 q 61 -139 68 -149 q 75 -159 86 -159 q 113 -159 135 -112 q 157 -64 172 25 q 146 36 129 58 q 112 80 112 104 z m -5 25 q -26 10 -49 2 q -72 -5 -100 -7 l -82 59 q 2 66 48 225 q 56 250 60 263 q 140 530 210 642 q 281 754 366 754 q 415 754 442 721 q 469 688 469 627 q 469 522 388 390 q 307 257 176 158 q 205 146 222 124 q 239 102 248 63 q 263 60 279 59 q 295 57 312 57 q 318 57 325 57 q 333 58 349 59 l 331 -7 q 326 -7 321 -8 q 315 -8 306 -8 q 293 -8 280 -7 q 267 -6 250 -3 q 241 -112 187 -180 q 133 -248 59 -248 q 12 -248 -13 -219 q -38 -191 -38 -137 q -38 -108 -30 -69 q -22 -30 -5 25 z"},"Q":{"x_min":0,"x_max":722,"ha":722,"o":"m 304 468 q 304 464 305 457 q 306 450 306 449 q 306 411 289 391 q 271 371 239 371 q 189 371 154 415 q 118 459 118 522 q 118 619 203 689 q 288 759 406 759 q 531 759 606 683 q 682 608 682 484 q 682 361 603 250 q 524 140 380 64 q 405 -8 434 -49 q 463 -90 487 -90 q 492 -90 499 -88 q 506 -87 514 -84 q 517 -91 519 -98 q 520 -104 520 -111 q 520 -145 498 -167 q 476 -189 441 -189 q 394 -189 355 -135 q 315 -81 283 29 q 252 15 221 7 q 190 0 159 0 q 85 0 39 41 q -8 81 -8 143 q -8 206 34 245 q 76 285 142 285 q 198 285 247 251 q 297 217 332 155 q 435 212 495 301 q 556 390 556 481 q 556 564 511 611 q 465 658 385 658 q 316 658 270 622 q 223 586 223 534 q 223 502 243 486 q 263 470 304 468 z m 243 114 q 221 155 196 173 q 171 192 140 192 q 114 192 98 179 q 82 166 82 145 q 82 122 101 109 q 120 95 152 95 q 173 95 196 100 q 219 104 243 114 z"},"w":{"x_min":0,"x_max":659,"ha":659,"o":"m -100 -7 l -81 59 q -55 61 -34 65 q -14 69 4 77 q -1 96 -3 108 q -5 121 -5 131 q -5 173 17 245 q 39 317 77 402 q 97 446 107 454 q 118 462 146 462 q 176 462 197 453 q 217 443 217 429 q 217 421 195 383 q 173 344 157 309 q 132 253 118 204 q 104 155 104 123 q 104 102 111 93 q 118 83 133 83 q 151 83 178 101 q 204 119 235 153 q 239 201 254 255 q 268 310 292 366 q 299 385 310 391 q 320 398 342 398 q 372 398 392 390 q 411 381 411 368 q 411 366 396 332 q 382 299 370 265 q 352 212 343 178 q 335 145 335 123 q 335 98 342 87 q 350 76 366 76 q 403 76 449 141 q 496 207 517 298 q 495 306 485 322 q 474 339 474 366 q 474 405 495 430 q 516 454 550 454 q 582 454 600 434 q 617 414 617 376 q 617 339 595 273 q 574 207 540 147 q 495 67 447 29 q 398 -9 343 -9 q 297 -9 270 11 q 243 31 236 70 q 193 27 162 9 q 131 -9 100 -9 q 81 -9 64 -2 q 47 5 31 21 q 2 8 -30 1 q -62 -5 -100 -7 z"},"-":{"x_min":0,"x_max":299,"ha":299,"o":"m 200 276 q 213 276 219 271 q 225 265 225 254 q 225 250 225 249 q 225 247 224 245 l 216 215 q 213 202 206 195 q 199 188 188 188 l 34 188 q 21 188 15 193 q 9 198 9 210 q 9 212 9 214 q 9 216 10 218 l 17 249 q 20 262 27 269 q 35 276 45 276 z"},"E":{"x_min":0,"x_max":542,"ha":542,"o":"m 186 312 q 163 325 149 356 q 135 386 135 425 q 135 473 163 530 q 190 586 240 639 q 294 697 356 728 q 419 759 480 759 q 526 759 556 738 q 586 718 586 688 q 586 670 576 660 q 567 649 547 645 q 537 661 524 668 q 511 675 492 675 q 457 675 416 650 q 375 625 334 578 q 292 529 268 477 q 244 424 244 380 q 244 371 246 350 q 246 348 246 347 q 278 369 304 379 q 331 389 354 389 q 382 389 400 374 q 417 359 417 336 q 417 305 387 285 q 357 266 306 266 q 297 266 287 267 q 277 268 259 271 q 169 182 114 84 q 58 -14 58 -74 q 58 -97 69 -109 q 81 -121 103 -121 q 139 -121 183 -94 q 228 -66 274 -15 q 300 14 326 50 q 352 86 364 86 q 382 86 399 72 q 417 58 417 41 q 417 28 397 -2 q 377 -31 342 -69 q 271 -145 204 -183 q 136 -221 72 -221 q 3 -221 -38 -182 q -79 -143 -79 -78 q -79 14 -7 121 q 64 229 186 312 z"},"s":{"x_min":0,"x_max":467,"ha":467,"o":"m 94 116 q 112 109 126 95 q 139 81 147 59 q 193 68 219 105 q 246 143 246 199 q 246 221 241 246 q 237 271 228 301 q 208 259 174 211 q 139 163 94 116 z m -100 -7 l -82 59 q -35 65 41 148 q 116 230 198 368 q 188 378 184 389 q 180 401 180 416 q 180 454 209 481 q 238 509 279 509 q 304 509 318 496 q 333 483 333 461 q 333 440 320 419 q 308 398 284 378 q 327 330 346 290 q 365 250 365 207 q 365 168 351 132 q 338 96 314 71 q 326 65 340 62 q 355 59 375 59 l 386 59 l 367 -7 l 353 -7 q 325 -7 300 -1 q 275 4 250 15 q 221 3 193 -3 q 166 -9 142 -9 q 104 -9 69 4 q 35 16 13 38 q -11 20 -39 9 q -67 -2 -100 -7 z"},">":{"x_min":0,"x_max":833,"ha":833,"o":"m 129 574 l 704 337 l 704 259 l 129 23 l 129 112 l 585 298 l 129 484 z"},"l":{"x_min":0,"x_max":280,"ha":280,"o":"m -100 -7 l -82 59 q -56 59 -27 74 q 1 89 38 121 q 54 232 82 350 q 111 468 149 583 q 182 678 210 715 q 238 751 274 751 q 299 751 315 731 q 331 712 331 681 q 331 643 302 584 q 273 525 225 465 q 187 344 164 243 q 142 142 142 109 q 142 83 155 71 q 168 59 199 59 l 180 -7 l 168 -7 q 114 -7 83 9 q 53 24 44 57 q 12 27 -24 11 q -61 -5 -100 -7 z"},"8":{"x_min":0,"x_max":528,"ha":528,"o":"m 196 395 q 167 447 155 481 q 143 516 143 547 q 143 626 200 679 q 257 732 345 732 q 417 732 473 706 q 530 680 530 652 q 530 635 510 617 q 490 599 474 599 q 465 599 427 622 q 390 645 350 645 q 303 645 277 618 q 252 590 252 540 q 252 523 259 504 q 266 485 281 462 q 321 499 361 548 q 401 597 411 597 q 426 597 435 576 q 444 555 444 518 q 444 476 356 399 q 342 387 334 380 q 369 324 385 280 q 400 236 400 194 q 400 105 339 48 q 279 -9 184 -9 q 108 -9 59 33 q 10 76 10 140 q 10 196 53 255 q 96 315 196 395 z m 246 316 q 180 266 148 225 q 116 184 116 148 q 116 117 136 98 q 156 78 187 78 q 229 78 258 110 q 287 142 287 189 q 287 223 277 254 q 267 286 246 316 z"},"\\":{"x_min":0,"x_max":387,"ha":387,"o":"m 247 -64 l 247 -74 q 247 -84 238 -88 q 229 -93 209 -93 q 190 -93 183 -88 q 176 -83 174 -64 l 101 731 l 101 742 q 101 751 110 755 q 120 760 139 760 q 158 760 166 754 q 173 749 175 731 z"},"e":{"x_min":0,"x_max":372,"ha":372,"o":"m 141 145 q 192 178 227 235 q 261 291 261 333 q 261 354 251 365 q 241 376 221 376 q 181 376 149 328 q 118 281 118 218 q 118 194 124 177 q 129 159 141 145 z m 91 42 q 43 20 -4 7 q -52 -5 -100 -7 l -81 59 q -47 62 -18 68 q 10 75 37 87 q 19 111 10 143 q 1 174 1 216 q 1 313 68 386 q 134 458 225 458 q 276 458 305 427 q 335 397 335 344 q 335 287 293 217 q 250 147 180 94 q 201 75 225 67 q 249 59 284 59 l 291 59 l 272 -7 l 259 -7 q 204 -7 163 5 q 121 17 91 42 z"},"b":{"x_min":0,"x_max":447,"ha":447,"o":"m -81 59 q -51 61 -26 68 q -2 76 16 88 q 15 104 14 114 q 14 124 14 132 q 14 176 43 290 q 72 403 119 534 q 168 671 196 707 q 224 743 262 743 q 289 743 305 725 q 322 706 322 676 q 322 625 296 575 q 271 524 221 475 q 176 348 151 251 q 125 153 125 113 q 125 94 134 83 q 143 73 159 73 q 205 73 247 139 q 289 204 293 293 q 258 296 242 313 q 225 330 225 361 q 225 395 244 415 q 263 436 295 436 q 334 436 359 401 q 384 366 384 310 q 384 182 310 86 q 236 -9 140 -9 q 111 -9 85 1 q 60 10 42 28 q 10 12 -25 3 q -59 -5 -100 -7 z"},"%":{"x_min":0,"x_max":935,"ha":935,"o":"m 378 604 q 378 591 379 576 q 379 573 379 572 q 379 443 318 351 q 257 259 173 259 q 114 259 79 301 q 45 343 45 416 q 45 462 65 511 q 85 561 123 609 q 161 656 200 685 q 240 714 265 714 q 282 714 296 704 q 310 694 310 682 q 310 678 283 657 q 255 636 233 612 q 189 564 164 502 q 138 439 138 379 q 138 349 148 333 q 158 317 178 317 q 220 317 253 383 q 286 449 286 536 q 286 551 283 573 q 281 595 281 603 q 281 630 307 653 q 333 676 353 676 q 358 676 369 668 q 405 641 469 641 q 521 641 575 656 q 628 670 677 697 q 691 705 708 718 q 724 731 728 731 q 739 731 755 716 q 770 702 770 688 q 770 677 710 608 q 650 539 606 482 q 483 325 371 157 q 258 -11 251 -11 q 240 -11 219 8 q 197 28 197 38 q 197 54 325 230 q 453 405 630 625 q 587 609 545 601 q 503 593 463 593 q 443 593 422 595 q 401 598 378 604 z m 754 446 q 771 446 785 436 q 800 427 800 414 q 800 409 772 389 q 745 369 725 347 q 677 294 652 234 q 627 174 627 112 q 627 81 637 65 q 647 49 668 49 q 708 49 741 114 q 775 180 775 260 q 775 277 772 303 q 770 330 770 338 q 770 361 789 376 q 808 391 835 391 q 855 391 862 372 q 868 353 868 296 q 868 173 807 82 q 745 -9 662 -9 q 603 -9 569 33 q 534 75 534 147 q 534 193 554 244 q 574 294 612 341 q 649 388 689 417 q 730 446 754 446 z"},"m":{"x_min":0,"x_max":768,"ha":768,"o":"m -100 -7 l -82 59 q -30 61 5 107 q 41 153 70 256 q 83 303 98 370 q 119 464 161 464 q 200 464 217 459 q 233 455 233 444 q 233 436 203 360 q 172 285 148 214 q 229 345 285 400 q 341 455 392 455 q 421 455 438 439 q 456 422 456 394 q 456 375 440 333 q 425 292 391 218 q 486 364 536 409 q 585 455 637 455 q 672 455 692 438 q 712 420 712 390 q 712 355 650 204 l 643 184 q 631 157 625 131 q 618 105 618 94 q 618 77 632 69 q 646 62 686 59 l 667 -7 l 662 -7 q 577 -7 539 14 q 500 35 500 81 q 500 112 540 209 q 551 237 558 252 q 576 298 582 316 q 587 333 587 341 q 587 350 584 353 q 582 357 575 357 q 553 357 494 281 q 434 206 383 105 q 370 77 355 41 q 338 -5 297 -5 q 261 -5 247 0 q 232 4 232 15 q 232 24 255 76 q 278 128 292 166 q 331 262 341 293 q 351 324 351 338 q 351 347 345 352 q 340 357 332 357 q 307 357 248 284 q 188 211 150 125 q 134 88 118 48 q 102 7 100 5 q 93 -2 80 -6 q 67 -9 39 -9 q 20 -9 11 -5 q 3 -1 3 7 q 3 14 12 35 q 14 39 14 41 q -7 19 -35 7 q -63 -5 -100 -7 z"},"#":{"x_min":0,"x_max":769,"ha":769,"o":"m 346 416 l 302 292 l 427 292 l 471 416 z m 359 713 l 452 713 l 377 500 l 499 500 l 575 713 l 668 713 l 593 500 l 735 500 l 706 416 l 563 416 l 519 293 l 670 293 l 640 209 l 490 209 l 414 -3 l 321 -3 l 397 209 l 274 209 l 197 -3 l 104 -3 l 180 209 l 34 209 l 64 293 l 209 293 l 253 416 l 99 416 l 129 500 l 283 500 z"},",":{"x_min":0,"x_max":264,"ha":264,"o":"m -6 82 l -6 89 q -6 109 -2 117 q 2 125 12 129 q 24 135 46 140 q 67 145 78 145 q 88 145 94 140 q 100 134 100 125 q 100 110 88 82 q 76 54 54 18 q 35 -13 18 -32 q 0 -51 -8 -51 q -19 -51 -27 -45 q -34 -40 -34 -31 q -34 -28 -29 -16 q -6 35 -6 82 z"},"n":{"x_min":0,"x_max":531,"ha":531,"o":"m 15 41 q -7 19 -35 7 q -64 -5 -100 -7 l -82 59 q -30 61 5 107 q 41 153 70 256 q 84 305 100 373 q 119 464 162 464 q 200 464 216 459 q 232 455 232 444 q 232 436 202 360 q 172 285 148 215 q 225 338 288 395 q 351 452 412 452 q 442 452 459 436 q 477 419 477 390 q 477 357 420 217 l 408 186 q 396 156 388 131 q 381 105 381 94 q 381 76 395 69 q 409 62 449 59 l 431 -7 l 419 -7 q 339 -7 302 15 q 265 36 265 82 q 265 103 279 146 q 293 190 322 257 l 326 267 q 351 323 351 333 q 351 341 346 345 q 342 349 333 349 q 305 349 244 276 q 184 203 139 98 q 129 77 119 47 q 98 -9 39 -9 q 19 -9 11 -5 q 3 -1 3 8 q 3 13 6 21 q 9 29 15 41 z"},"h":{"x_min":0,"x_max":531,"ha":531,"o":"m 15 41 q -7 19 -35 7 q -64 -5 -100 -7 l -81 59 q -32 62 1 102 q 34 141 65 239 l 167 557 q 179 591 192 642 q 215 730 271 730 q 311 730 324 725 q 338 720 338 707 q 338 693 319 647 q 312 628 308 618 l 148 215 q 225 338 288 395 q 351 452 412 452 q 442 452 459 436 q 477 419 477 390 q 477 357 419 215 l 408 185 q 396 156 388 130 q 381 105 381 94 q 381 76 395 69 q 409 62 449 59 l 431 -7 l 419 -7 q 339 -7 302 15 q 265 36 265 82 q 265 103 279 146 q 293 190 322 257 l 326 267 q 351 323 351 333 q 351 341 346 345 q 342 349 333 349 q 305 349 244 276 q 184 203 139 98 q 129 77 119 47 q 98 -9 39 -9 q 19 -9 11 -5 q 3 -1 3 8 q 3 13 6 21 q 9 29 15 41 z"},"z":{"x_min":0,"x_max":391,"ha":391,"o":"m 142 -5 q 73 -15 35 -46 q -4 -78 -4 -124 q -4 -141 7 -152 q 19 -162 37 -162 q 80 -162 112 -121 q 143 -80 143 -21 q 143 -19 143 -13 q 142 -8 142 -5 z m 136 54 q 126 89 99 107 q 72 125 28 125 q 12 125 8 127 q 4 130 4 135 l 4 137 l 6 168 q 8 191 41 191 q 62 192 76 194 q 128 203 162 236 q 195 269 195 311 q 195 337 180 352 q 166 366 140 366 q 125 366 114 362 q 103 357 91 348 q 80 351 74 360 q 68 369 68 384 q 68 419 94 441 q 120 463 162 463 q 224 463 264 420 q 304 378 304 311 q 304 243 265 196 q 226 150 160 141 q 183 126 198 106 q 214 86 225 59 q 234 59 243 58 q 253 58 266 58 q 283 58 292 58 q 301 59 309 59 l 290 -7 l 244 -6 l 244 -17 q 244 -118 187 -185 q 129 -252 45 -252 q -10 -252 -42 -220 q -73 -188 -73 -133 q -73 -56 -14 -2 q 45 51 136 54 z"},"B":{"x_min":0,"x_max":685,"ha":685,"o":"m 392 464 q 417 462 439 453 q 461 445 482 429 q 535 469 564 512 q 593 556 593 595 q 593 632 575 652 q 558 672 524 672 q 500 672 476 662 q 452 652 427 632 q 420 592 412 550 q 403 508 392 464 z m 290 482 q 245 441 206 382 q 167 323 130 240 q 107 187 95 148 q 84 108 84 84 q 84 70 89 63 q 95 57 106 57 q 142 57 190 168 q 238 278 290 482 z m 267 106 q 292 99 311 96 q 330 93 345 93 q 406 93 445 139 q 484 186 484 256 q 484 283 477 307 q 469 330 453 353 q 440 351 428 350 q 417 349 408 349 q 399 349 388 350 q 376 351 363 352 q 343 276 319 215 q 295 153 267 106 z m 225 30 q 195 -12 159 -35 q 124 -57 86 -57 q 41 -57 17 -26 q -7 5 -7 65 q -7 131 25 216 q 57 302 115 389 q 162 459 217 516 q 271 572 319 600 q 320 613 322 635 q 329 716 345 731 q 355 740 382 750 q 409 759 426 759 q 433 759 438 752 q 444 746 444 738 q 444 733 443 728 q 442 723 441 716 q 471 737 503 748 q 536 759 568 759 q 629 759 668 716 q 706 673 706 605 q 706 532 661 474 q 616 416 530 380 q 562 338 578 296 q 594 254 594 212 q 594 120 532 56 q 469 -9 378 -9 q 339 -9 302 1 q 264 10 225 30 z"},"K":{"x_min":0,"x_max":774,"ha":774,"o":"m 531 726 q 515 643 496 565 q 477 486 456 414 q 466 418 475 420 q 483 422 492 422 q 494 422 497 421 q 500 421 502 421 q 570 499 623 566 q 676 633 700 672 q 708 685 719 705 q 748 760 803 760 q 838 760 859 752 q 880 745 880 732 q 880 700 795 607 q 710 514 579 409 q 625 397 647 375 q 669 352 669 316 q 669 286 644 212 q 619 138 619 110 q 619 83 635 72 q 652 61 693 59 l 674 -7 l 668 -7 q 578 -7 536 18 q 493 42 493 94 q 493 132 520 209 q 547 286 547 311 q 547 322 537 331 q 528 339 510 344 q 493 316 467 299 q 441 282 410 279 q 354 129 279 60 q 205 -9 103 -9 q 36 -9 -7 25 q -50 60 -50 112 q -50 136 -37 152 q -24 168 -5 168 l -2 168 q 7 131 34 112 q 61 93 105 93 q 194 93 263 225 q 333 356 399 656 q 373 661 352 664 q 331 666 314 666 q 257 666 234 650 q 212 635 208 593 q 205 592 202 592 q 200 592 195 592 q 171 592 157 606 q 142 620 142 643 q 142 697 194 729 q 245 760 336 760 q 382 760 430 751 q 478 743 531 726 z"},"R":{"x_min":0,"x_max":678,"ha":678,"o":"m 264 498 q 178 390 126 288 q 74 187 74 135 q 74 124 79 117 q 84 111 94 111 q 125 111 171 215 q 217 320 264 498 z m 353 433 l 362 433 q 379 433 398 431 q 417 428 438 423 q 497 471 529 518 q 561 564 561 602 q 561 631 546 646 q 531 662 504 662 q 480 662 453 649 q 427 636 397 610 q 388 569 377 525 q 366 481 353 433 z m 320 318 q 267 146 209 68 q 152 -9 80 -9 q 32 -9 6 22 q -21 54 -21 110 q -21 207 58 337 q 137 468 273 593 q 275 607 278 632 q 285 690 296 704 q 307 717 344 734 q 381 751 397 751 q 406 751 409 746 q 412 741 412 727 q 412 721 411 711 q 410 702 408 691 q 445 725 482 741 q 518 757 556 757 q 612 757 645 725 q 678 693 678 640 q 678 576 635 514 q 593 452 507 390 q 540 375 557 350 q 574 326 574 295 q 574 258 552 191 q 529 123 529 96 q 529 78 542 70 q 555 62 597 59 l 578 -7 l 564 -7 q 484 -7 443 18 q 401 43 401 91 q 401 125 427 203 q 453 282 453 319 q 453 331 450 338 q 446 345 438 351 q 417 335 390 328 q 362 320 320 318 z"},"T":{"x_min":0,"x_max":612,"ha":612,"o":"m 462 627 q 411 641 369 647 q 327 654 290 654 q 235 654 195 640 q 156 625 140 600 q 125 606 118 617 q 111 628 111 644 q 111 697 165 729 q 218 760 312 760 q 369 760 439 748 q 509 735 604 708 q 548 475 504 320 q 461 166 430 90 q 381 -32 307 -91 q 233 -150 129 -150 q 43 -150 -5 -122 q -53 -94 -53 -45 q -53 -23 -44 -8 q -36 8 -18 16 q 12 -18 45 -33 q 78 -48 123 -48 q 187 -48 230 -13 q 273 21 308 103 q 335 165 377 306 q 418 447 462 627 z"},"P":{"x_min":0,"x_max":704,"ha":704,"o":"m 330 176 q 277 -13 220 -94 q 164 -175 86 -175 q 29 -175 -3 -127 q -36 -80 -36 4 q -36 111 14 256 q 64 401 146 523 q 225 640 312 699 q 400 759 495 759 q 584 759 636 701 q 688 643 688 541 q 688 486 672 427 q 656 368 626 313 q 587 240 532 202 q 477 164 411 164 q 397 164 377 167 q 356 170 330 176 z m 346 256 q 351 255 356 255 q 361 255 367 255 q 442 255 497 339 q 552 423 552 540 q 552 601 531 631 q 511 661 469 661 q 427 661 372 624 q 317 586 267 522 q 229 474 197 412 q 164 350 136 274 q 105 192 89 124 q 72 55 72 14 q 72 -17 80 -33 q 88 -49 104 -49 q 146 -49 184 72 q 222 192 237 386 q 237 390 238 398 q 242 443 254 456 q 269 472 298 487 q 326 502 336 502 q 349 502 354 490 q 358 478 358 426 l 358 411 q 358 374 355 335 q 352 296 346 256 z"},"|":{"x_min":0,"x_max":500,"ha":500,"o":"m 207 764 l 294 764 l 294 -236 l 207 -236 z"},"t":{"x_min":0,"x_max":331,"ha":331,"o":"m -100 -7 l -82 59 q -27 64 4 96 q 34 127 58 211 l 99 356 l 51 356 q 41 356 37 359 q 33 361 33 368 q 33 369 33 371 q 33 372 35 376 l 42 400 q 45 409 52 413 q 60 416 81 416 l 117 416 l 165 574 q 168 587 174 609 q 189 673 234 673 q 267 673 285 665 q 303 657 303 642 q 303 632 292 604 q 286 590 283 581 l 227 416 l 309 416 q 318 416 323 413 q 328 411 328 405 q 328 402 327 400 q 327 398 327 396 l 318 373 q 315 364 308 360 q 300 356 280 356 l 208 356 l 161 198 q 152 172 148 153 q 145 133 145 121 q 145 93 171 78 q 197 62 250 59 l 230 -7 l 219 -7 q 154 -7 110 9 q 66 24 46 53 q 15 26 -23 11 q -61 -5 -100 -7 z"},"M":{"x_min":0,"x_max":1211,"ha":1211,"o":"m 210 390 q 202 373 188 365 q 174 356 155 356 q 117 356 96 387 q 75 417 75 475 q 75 592 148 675 q 220 759 322 759 q 392 759 431 724 q 470 689 470 628 q 470 594 458 540 q 446 486 419 402 q 529 598 604 676 q 678 754 751 754 q 794 754 819 727 q 843 699 843 650 q 843 589 766 420 l 755 396 q 882 591 969 675 q 1056 759 1128 759 q 1168 759 1194 732 q 1219 705 1219 662 q 1219 602 1137 407 l 1124 376 l 1116 357 q 1034 160 1034 124 q 1034 91 1057 75 q 1079 60 1130 59 l 1111 -7 l 1096 -7 q 1000 -7 955 25 q 911 57 911 126 q 911 187 1008 413 q 1029 460 1040 486 l 1045 497 q 1088 599 1088 622 q 1088 633 1081 640 q 1074 648 1065 648 q 1027 648 926 525 q 824 402 742 238 q 716 187 693 134 q 669 80 648 25 q 640 3 627 -3 q 615 -9 587 -9 q 545 -9 525 -2 q 505 5 505 20 q 505 28 541 108 q 569 172 588 215 q 656 372 695 476 q 733 580 733 608 q 733 623 724 633 q 715 643 702 643 q 655 643 572 534 q 489 425 411 255 q 382 191 353 112 q 323 34 319 24 q 309 1 298 -4 q 287 -9 253 -9 q 218 -9 199 -1 q 180 6 180 19 q 180 33 216 119 q 252 206 276 268 q 314 368 337 457 q 360 546 360 587 q 360 621 344 639 q 327 657 297 657 q 246 657 209 606 q 173 554 173 483 q 173 453 183 427 q 193 402 210 390 z"},"g":{"x_min":0,"x_max":554,"ha":554,"o":"m 323 170 q 271 77 220 34 q 168 -9 110 -9 q 82 -9 61 -1 q 41 7 29 22 q 4 9 -27 2 q -58 -5 -100 -7 l -81 59 q -54 61 -32 66 q -11 71 6 81 q 4 91 3 102 q 2 113 2 126 q 2 167 20 215 q 37 263 69 309 q 118 379 177 416 q 235 453 299 453 q 331 453 354 443 q 378 434 401 412 q 407 445 417 454 q 428 463 467 463 q 500 463 513 457 q 526 451 526 436 q 526 429 524 421 q 521 413 514 393 l 371 46 q 386 51 421 54 q 456 57 472 59 l 454 -7 l 448 -8 q 376 -15 347 -25 q 294 -153 253 -202 q 212 -252 164 -252 q 133 -252 116 -236 q 99 -221 99 -192 q 99 -150 131 -115 q 163 -79 232 -45 q 256 4 279 58 q 301 111 323 170 z m 373 355 q 360 365 347 370 q 334 375 321 375 q 292 375 255 350 q 217 325 183 282 q 152 243 134 198 q 115 154 115 121 q 115 97 124 86 q 132 74 149 74 q 197 74 254 146 q 311 217 373 355 z"},"j":{"x_min":0,"x_max":306,"ha":306,"o":"m 230 606 q 202 606 186 621 q 171 637 171 665 q 171 702 194 727 q 216 752 248 752 q 274 752 291 735 q 308 718 308 691 q 308 655 286 630 q 263 606 230 606 z m 34 58 q 4 26 -28 10 q -60 -5 -100 -7 l -81 59 q -23 61 17 123 q 58 185 94 326 q 100 349 107 383 q 122 457 203 457 q 222 457 232 451 q 242 446 242 435 q 242 418 225 377 q 208 336 201 312 l 124 46 q 149 51 216 58 q 222 59 225 59 l 206 -7 l 200 -8 q 128 -15 99 -25 q 77 -144 40 -203 q 2 -262 -52 -262 q -80 -262 -97 -244 q -114 -225 -114 -195 q -114 -155 -86 -119 q -58 -83 -2 -50 z"},"i":{"x_min":0,"x_max":286,"ha":286,"o":"m -100 -7 l -82 59 q -24 61 17 123 q 58 185 94 326 q 99 349 106 383 q 121 457 203 457 q 222 457 232 451 q 242 446 242 435 q 242 420 225 378 q 208 335 201 312 l 154 170 l 152 165 q 134 113 134 98 q 134 78 148 70 q 162 62 204 59 l 186 -7 l 168 -7 q 105 -7 74 10 q 42 26 37 62 q 8 29 -26 12 q -59 -5 -100 -7 z m 229 606 q 201 606 186 621 q 170 637 170 665 q 170 702 193 727 q 216 752 248 752 q 273 752 291 735 q 308 718 308 691 q 308 655 285 630 q 263 606 229 606 z"},"y":{"x_min":0,"x_max":544,"ha":544,"o":"m 44 33 q 7 16 -29 5 q -66 -5 -100 -7 l -81 59 q -52 61 -25 68 q 1 76 27 91 q 28 138 41 192 q 53 247 80 321 q 112 409 129 435 q 145 461 163 461 q 201 461 220 452 q 240 443 240 425 q 240 415 219 370 q 198 326 187 299 q 160 235 149 196 q 139 156 139 125 q 139 106 146 97 q 154 88 169 88 q 206 88 252 142 q 299 196 338 286 q 358 330 376 391 q 396 456 425 456 q 455 456 476 446 q 497 435 497 419 q 497 410 485 382 q 476 362 472 350 l 361 46 q 388 52 453 58 q 459 59 462 59 l 443 -7 q 398 -11 374 -15 q 351 -20 333 -25 q 299 -143 258 -200 q 216 -257 164 -257 q 138 -257 125 -244 q 111 -231 111 -207 q 111 -162 146 -117 q 181 -73 240 -46 q 264 13 284 68 q 305 122 323 174 q 271 79 221 35 q 171 -9 117 -9 q 92 -9 72 3 q 51 15 44 33 z"},"@":{"x_min":0,"x_max":1000,"ha":1000,"o":"m 573 138 q 546 96 511 76 q 475 56 425 56 q 351 56 311 98 q 272 141 272 220 q 272 334 339 413 q 407 492 502 492 q 545 492 575 475 q 604 458 623 423 l 650 475 l 725 475 l 653 189 q 652 187 652 183 q 649 169 649 165 q 649 146 662 135 q 675 124 696 124 q 721 124 748 139 q 776 154 800 180 q 835 217 854 267 q 872 316 872 372 q 872 496 781 573 q 689 650 542 650 q 475 650 417 635 q 359 620 312 589 q 224 534 176 447 q 128 360 128 254 q 128 102 230 10 q 333 -81 503 -81 q 584 -81 661 -57 q 738 -33 803 12 l 836 -36 q 763 -91 680 -119 q 598 -147 507 -147 q 413 -147 335 -124 q 258 -100 198 -54 q 123 3 85 80 q 48 157 48 255 q 48 335 73 408 q 99 480 148 541 q 220 628 321 674 q 421 719 545 719 q 626 719 699 697 q 771 675 823 635 q 888 585 920 520 q 952 455 952 373 q 952 294 920 226 q 889 157 830 110 q 796 83 757 69 q 717 55 675 55 q 623 55 598 75 q 573 95 573 136 z m 602 345 q 595 386 572 409 q 549 431 512 431 q 450 431 406 368 q 362 306 362 217 q 362 169 384 143 q 406 117 447 117 q 491 117 527 150 q 562 182 575 234 z"},".":{"x_min":0,"x_max":264,"ha":264,"o":"m 39 129 q 66 129 83 112 q 99 95 99 66 q 99 32 79 12 q 59 -9 27 -9 q -3 -9 -20 8 q -36 24 -36 54 q -36 89 -16 109 q 4 129 39 129 z"},"p":{"x_min":0,"x_max":521,"ha":521,"o":"m 83 24 q 56 -51 26 -183 q 23 -197 21 -205 q 16 -231 -3 -240 q -21 -249 -66 -249 q -79 -249 -87 -244 q -96 -240 -96 -233 q -96 -214 -66 -130 q -36 -46 -18 17 q -35 6 -55 0 q -75 -5 -100 -7 l -82 59 q 14 66 68 309 l 70 321 q 78 355 88 408 q 112 533 180 533 q 203 533 213 528 q 224 522 224 511 q 224 499 191 400 q 165 320 147 266 q 210 373 257 416 q 303 458 355 458 q 406 458 439 423 q 472 387 472 331 q 472 267 436 201 q 399 136 331 76 q 353 67 380 63 q 407 59 439 59 l 420 -7 l 408 -7 q 368 -7 333 1 q 299 10 271 27 q 245 14 218 7 q 190 0 165 0 q 144 0 124 6 q 104 12 83 24 z m 113 100 q 133 109 152 114 q 170 118 188 118 q 203 118 220 115 q 238 111 258 103 q 308 147 336 201 q 365 255 365 302 q 365 333 352 350 q 338 368 315 368 q 271 368 215 295 q 160 222 113 100 z"},"X":{"x_min":0,"x_max":741,"ha":741,"o":"m 317 186 q 177 -35 81 -112 q -15 -189 -131 -189 q -181 -189 -209 -167 q -237 -146 -237 -106 q -237 -98 -234 -88 q -231 -78 -224 -64 q -205 -76 -182 -82 q -159 -89 -138 -89 q -52 -89 56 10 q 163 109 281 298 q 266 367 246 476 q 208 680 153 680 q 146 680 136 678 q 126 676 116 673 q 116 674 115 678 q 112 690 112 696 q 112 723 136 741 q 160 760 194 760 q 262 760 303 691 q 344 623 376 442 q 463 600 541 680 q 618 760 684 760 q 719 760 741 740 q 762 721 762 689 q 762 682 760 676 q 758 670 754 664 q 744 671 735 674 q 726 677 716 677 q 658 677 580 590 q 501 502 404 330 q 437 189 497 124 q 558 59 655 59 l 659 59 l 641 -7 l 605 -7 q 493 -7 423 41 q 352 88 317 186 z"},"*":{"x_min":0,"x_max":394,"ha":394,"o":"m 226 569 l 134 591 q 132 591 130 592 q 98 600 98 620 q 98 638 107 651 q 116 664 129 664 q 132 664 137 662 q 143 660 155 655 l 242 619 l 234 714 l 234 721 l 234 736 q 234 746 244 752 q 253 759 269 759 q 285 759 294 753 q 303 747 303 737 l 303 722 l 303 714 l 295 619 l 383 655 q 393 660 399 662 q 405 664 408 664 q 420 664 430 651 q 439 637 439 619 q 439 600 407 592 q 404 591 403 591 l 311 569 l 373 497 q 375 495 378 491 q 390 477 390 468 q 390 456 375 443 q 361 431 348 431 q 334 431 321 452 q 319 456 318 457 l 269 538 l 220 457 q 219 455 217 452 q 204 431 190 431 q 177 431 162 443 q 148 456 148 467 q 148 478 160 491 q 163 495 165 497 z"},"Y":{"x_min":0,"x_max":892,"ha":892,"o":"m 697 353 q 597 182 499 92 q 400 3 312 3 q 267 3 242 26 q 217 49 217 91 q 217 112 234 170 q 251 228 281 304 q 291 329 308 373 q 379 552 379 595 q 379 624 363 641 q 347 657 319 657 q 263 657 218 591 q 174 525 174 444 q 174 418 180 402 q 186 386 198 377 q 197 366 186 359 q 174 353 155 353 q 118 353 95 384 q 72 415 72 464 q 72 581 148 666 q 225 750 325 750 q 402 750 444 708 q 487 667 487 592 q 487 552 473 498 q 460 443 431 369 l 362 191 q 352 164 349 153 q 346 142 346 134 q 346 119 353 113 q 359 107 378 107 q 406 107 433 123 q 461 140 495 177 q 548 234 597 304 q 646 375 687 452 q 738 547 776 654 q 814 760 833 760 q 857 760 885 747 q 913 734 913 722 q 913 714 907 696 q 905 690 904 687 l 800 317 q 778 239 759 179 q 740 119 720 62 q 738 59 748 58 q 759 57 767 57 q 773 57 791 58 q 798 59 803 59 l 785 -7 q 778 -7 765 -8 q 751 -9 747 -9 q 734 -9 702 -4 q 696 -3 693 -3 q 636 -125 574 -185 q 513 -246 446 -246 q 414 -246 395 -231 q 377 -217 377 -191 q 377 -145 434 -89 q 491 -32 582 6 q 619 89 648 176 q 677 263 697 353 z"},"c":{"x_min":0,"x_max":387,"ha":387,"o":"m -100 -7 l -81 59 q -51 61 -25 68 q 1 75 24 89 q 12 109 7 134 q 1 159 1 192 q 1 298 77 378 q 152 458 250 458 q 300 458 329 435 q 359 412 359 374 q 359 349 344 332 q 329 315 308 315 q 300 315 297 317 q 294 319 294 328 q 294 351 284 361 q 273 372 251 372 q 202 372 162 319 q 123 266 123 196 q 123 126 167 93 q 210 61 306 59 l 287 -7 q 279 -7 271 -9 q 269 -9 268 -9 q 202 -9 151 5 q 100 19 68 45 q 35 21 -7 8 q -49 -5 -100 -7 z"},"!":{"x_min":0,"x_max":287,"ha":287,"o":"m 160 244 q 151 221 143 213 q 136 205 122 205 q 101 205 87 214 q 73 224 73 238 q 73 244 74 252 q 76 260 79 273 l 186 685 q 194 718 204 729 q 214 739 232 739 q 263 739 295 721 q 327 704 327 684 q 327 675 324 664 q 322 652 316 639 z m 62 129 q 90 129 106 112 q 122 95 122 66 q 122 32 103 12 q 83 -9 51 -9 q 21 -9 4 8 q -13 24 -13 54 q -13 89 7 109 q 27 129 62 129 z"},"/":{"x_min":0,"x_max":356,"ha":356,"o":"m 15 -46 q 0 -73 -11 -83 q -22 -93 -35 -93 l -75 -93 q -82 -93 -85 -90 q -89 -87 -89 -83 q -89 -79 -86 -72 q -83 -65 -76 -52 l 354 713 q 369 739 380 749 q 391 759 404 759 l 444 759 q 451 759 455 757 q 458 754 458 750 q 458 745 455 736 q 452 728 446 718 z"},"[":{"x_min":0,"x_max":417,"ha":417,"o":"m -6 -214 q -30 -214 -42 -205 q -53 -195 -53 -176 q -53 -169 -51 -160 q -49 -150 -46 -139 l 217 689 q 229 725 243 737 q 258 750 286 750 l 431 750 q 447 750 455 743 q 463 736 463 722 q 463 700 449 689 q 435 679 402 679 l 332 679 q 313 679 306 673 q 298 667 294 653 l 58 -98 q 55 -106 53 -113 q 52 -120 52 -124 q 52 -134 57 -139 q 62 -143 80 -143 l 151 -143 q 167 -143 175 -150 q 182 -156 182 -170 q 182 -193 169 -204 q 155 -214 122 -214 z"},"6":{"x_min":0,"x_max":528,"ha":528,"o":"m 277 358 q 247 358 212 343 q 176 328 167 314 q 158 299 149 263 q 140 227 140 195 q 140 141 159 112 q 178 83 213 83 q 265 83 304 143 q 344 204 344 281 q 344 318 327 338 q 310 358 277 358 z m 316 731 l 400 731 q 411 731 416 729 q 420 727 420 722 q 420 711 386 678 q 353 645 331 618 q 285 562 251 509 q 218 455 199 407 q 229 425 258 434 q 288 443 320 443 q 385 443 422 400 q 459 357 459 281 q 459 246 447 205 q 434 164 411 123 q 375 59 324 25 q 273 -9 212 -9 q 125 -9 77 48 q 28 105 28 207 q 28 303 79 430 q 130 558 212 660 q 246 702 268 716 q 290 731 316 731 z"},"r":{"x_min":0,"x_max":462,"ha":462,"o":"m -101 -7 l -82 59 q -21 69 29 141 q 79 213 145 392 q 134 403 128 417 q 123 431 123 448 q 123 483 142 507 q 162 530 191 530 q 218 530 233 515 q 249 500 249 476 q 249 464 247 454 q 244 444 239 434 q 264 418 303 396 q 375 358 375 320 q 375 288 336 206 q 297 125 297 95 q 297 78 310 71 q 324 63 380 59 l 361 -7 l 346 -7 q 258 -7 220 13 q 181 34 181 79 q 181 120 218 199 q 255 279 255 302 q 255 312 242 324 q 229 335 199 353 q 134 164 64 81 q -5 -1 -101 -7 z"},"2":{"x_min":0,"x_max":528,"ha":528,"o":"m 143 109 l 144 107 l 346 107 q 377 107 388 99 q 398 91 398 70 q 398 37 385 18 q 373 0 350 0 l -32 0 q -50 0 -54 5 q -59 10 -59 24 q -59 54 11 109 q 71 158 114 197 q 243 315 296 390 q 349 465 349 525 q 349 574 321 602 q 293 630 245 630 q 225 630 201 624 q 178 617 176 617 q 155 617 148 626 q 141 636 141 658 q 141 702 165 717 q 188 732 253 732 q 350 732 410 679 q 470 627 470 542 q 470 409 175 139 z"},"{":{"x_min":0,"x_max":500,"ha":500,"o":"m 427 721 l 427 634 q 423 634 415 634 q 407 635 404 635 q 351 635 332 615 q 313 594 313 530 l 313 412 q 313 336 292 304 q 270 272 214 259 q 270 246 291 214 q 313 182 313 106 l 313 -11 q 313 -76 332 -96 q 352 -117 405 -117 q 408 -117 416 -117 q 423 -116 427 -116 l 427 -202 l 396 -202 q 346 -202 315 -196 q 284 -190 263 -178 q 235 -162 224 -131 q 213 -101 213 -32 l 213 89 q 213 159 187 188 q 162 217 100 217 q 97 217 90 216 q 83 216 79 216 l 79 303 q 83 303 90 302 q 97 302 100 302 q 162 302 187 331 q 213 359 213 429 l 213 550 q 213 621 224 651 q 235 681 263 697 q 285 710 316 716 q 348 721 405 721 z"},"9":{"x_min":0,"x_max":528,"ha":528,"o":"m 198 -9 l 114 -9 q 103 -9 98 -7 q 93 -5 93 0 q 93 12 127 45 q 161 79 182 104 q 229 161 263 215 q 297 268 315 315 q 283 296 254 288 q 224 279 193 279 q 128 279 91 322 q 54 365 54 441 q 54 476 67 517 q 79 559 102 600 q 138 665 189 698 q 240 732 301 732 q 387 732 436 675 q 485 617 485 515 q 485 419 434 291 q 382 163 301 62 q 269 21 246 6 q 224 -9 198 -9 z m 236 364 q 266 364 302 379 q 337 394 346 408 q 356 424 365 459 q 373 495 373 527 q 373 580 355 610 q 336 640 304 640 q 250 640 209 580 q 169 520 169 441 q 169 404 186 384 q 204 364 236 364 z"}," ":{"x_min":0,"x_max":264,"ha":264,"o":""},"I":{"x_min":0,"x_max":523,"ha":523,"o":"m 284 191 q 328 331 353 455 q 378 579 378 638 q 378 651 373 659 q 368 666 358 666 q 342 666 320 642 q 298 617 275 573 q 240 504 222 435 q 203 366 203 305 q 203 257 224 228 q 245 199 284 191 z m 253 126 q 182 133 140 191 q 98 250 98 344 q 98 426 127 503 q 156 580 213 646 q 259 700 306 729 q 352 759 391 759 q 442 759 468 727 q 493 694 493 629 q 493 601 488 558 q 482 515 469 447 q 454 364 436 297 q 418 230 400 183 q 353 60 285 0 q 217 -60 125 -60 q 59 -60 20 -34 q -18 -7 -18 38 q -18 62 -9 78 q 1 93 16 95 q 32 64 56 50 q 80 36 115 36 q 160 36 196 60 q 232 83 253 126 z"},"H":{"x_min":0,"x_max":775,"ha":775,"o":"m 267 307 q 187 279 138 231 q 90 184 90 137 q 90 117 100 105 q 111 93 129 93 q 167 93 202 147 q 237 202 267 307 z m 396 332 q 342 151 279 71 q 216 -9 129 -9 q 67 -9 31 26 q -4 62 -4 123 q -4 221 80 299 q 165 376 297 398 q 318 457 338 519 q 357 581 375 646 q 339 656 307 661 q 275 666 244 666 q 200 666 175 651 q 150 637 146 609 q 145 609 142 608 q 139 608 137 608 q 122 608 114 618 q 106 628 106 648 q 106 697 159 728 q 211 760 297 760 q 360 760 412 750 q 464 740 512 719 q 488 626 467 551 q 445 476 425 418 q 439 418 453 419 q 466 419 478 419 q 504 419 519 419 q 534 418 547 418 q 603 583 661 670 q 718 757 771 757 q 802 757 820 738 q 839 719 839 688 q 839 646 814 623 q 789 600 740 598 q 670 416 637 304 q 604 193 604 140 q 604 98 625 79 q 646 61 694 59 l 675 -7 l 664 -7 q 563 -7 520 24 q 476 55 476 125 q 476 152 486 203 q 496 253 518 335 q 516 335 511 335 q 475 337 459 337 q 451 337 410 333 q 401 333 396 332 z"},"4":{"x_min":0,"x_max":528,"ha":528,"o":"m 205 126 l 53 123 l 49 123 q 29 123 18 130 q 7 136 7 148 q 7 190 54 325 q 101 459 174 602 q 180 614 191 636 q 240 732 275 732 q 301 732 323 718 q 344 705 344 685 q 344 672 311 621 q 278 569 258 530 q 212 441 181 365 q 150 290 133 223 l 237 226 q 251 265 275 330 q 348 534 382 534 q 409 534 430 521 q 451 508 451 492 q 451 475 410 391 q 369 307 344 235 q 382 236 421 238 q 430 239 432 239 q 442 239 448 232 q 453 226 453 214 q 453 204 449 187 q 446 171 439 153 q 433 139 425 134 q 417 129 395 129 l 369 129 l 306 129 l 255 -27 q 254 -29 252 -35 q 241 -70 210 -70 q 184 -70 174 -63 q 164 -56 164 -39 q 164 -32 166 -24 q 167 -16 171 -2 z"},"~":{"x_min":0,"x_max":833,"ha":833,"o":"m 747 383 l 747 293 q 697 258 651 241 q 604 224 561 224 q 540 224 516 228 q 492 232 468 241 q 456 245 431 254 q 327 290 275 290 q 235 290 190 271 q 145 253 87 212 l 87 303 q 139 338 186 356 q 232 373 276 373 q 306 373 337 367 q 368 361 419 344 q 426 342 440 336 q 520 308 562 308 q 604 308 648 326 q 693 344 747 383 z"},"D":{"x_min":0,"x_max":808,"ha":808,"o":"m 329 77 q 345 76 357 75 q 369 74 377 74 q 426 74 465 97 q 505 121 535 167 q 585 245 615 338 q 645 432 645 510 q 645 559 625 588 q 606 618 565 629 q 523 549 454 361 q 385 173 329 77 z m 282 20 q 255 -2 220 -15 q 185 -27 147 -27 q 103 -27 79 -12 q 55 3 55 31 q 55 62 84 80 q 113 97 165 97 q 181 97 197 95 q 214 93 235 89 q 252 125 320 312 q 388 500 464 635 l 462 635 q 418 635 366 608 q 315 581 264 531 q 187 456 141 365 q 95 275 95 200 q 95 191 97 171 q 97 168 97 166 q 91 162 84 160 q 77 158 68 158 q 39 158 24 177 q 9 196 9 233 q 9 323 58 421 q 106 520 189 594 q 260 658 333 686 q 405 715 493 715 l 511 715 l 525 743 q 530 754 544 759 q 557 764 586 764 q 604 764 614 760 q 623 755 623 747 q 623 743 619 733 q 615 723 601 697 q 675 675 715 613 q 754 550 754 455 q 754 381 727 294 q 699 207 652 134 q 608 66 546 30 q 483 -7 411 -7 q 381 -7 349 0 q 316 6 282 20 z"},"^":{"x_min":0,"x_max":1000,"ha":1000,"o":"m 447 713 l 553 713 l 795 439 l 694 439 l 500 633 l 305 439 l 204 439 z"},"0":{"x_min":0,"x_max":528,"ha":528,"o":"m 204 -9 q 121 -9 73 56 q 25 121 25 234 q 25 316 52 400 q 80 484 133 562 q 185 640 240 686 q 295 732 333 732 q 361 732 382 716 q 403 700 403 680 q 403 673 361 640 q 318 607 285 569 q 214 489 175 387 q 135 286 135 187 q 135 135 151 109 q 168 83 201 83 q 228 83 252 103 q 275 123 299 164 q 331 220 348 289 q 365 357 365 427 q 365 459 361 503 q 357 547 357 558 q 357 592 385 616 q 413 640 442 640 q 464 640 473 611 q 482 582 482 508 q 482 294 398 143 q 314 -9 204 -9 z"},"F":{"x_min":0,"x_max":683,"ha":683,"o":"m 405 360 l 493 627 q 438 647 397 656 q 355 666 323 666 q 278 666 254 651 q 230 636 230 609 q 230 605 231 591 q 232 586 232 584 q 228 578 221 574 q 215 571 208 571 q 187 571 173 587 q 159 604 159 629 q 159 689 206 725 q 253 760 336 760 q 403 760 479 742 q 555 725 635 690 q 597 573 571 493 q 544 413 523 351 q 535 349 557 345 q 638 329 638 305 q 638 301 634 286 q 631 278 630 273 l 600 169 l 600 167 q 592 143 558 143 q 542 143 533 147 q 525 151 525 159 q 525 160 526 165 q 527 167 527 168 l 548 251 q 537 255 523 258 q 509 260 491 262 q 418 30 328 -71 q 239 -172 108 -172 q 33 -172 -17 -136 q -66 -101 -66 -49 q -66 -21 -48 -2 q -31 17 -4 17 l -2 17 q 5 -25 31 -48 q 58 -70 102 -70 q 192 -70 254 6 q 315 83 373 272 q 329 271 285 261 q 241 251 239 251 q 236 251 233 254 q 231 258 231 262 l 231 266 l 241 322 q 245 342 281 350 q 317 359 405 360 z"},"`":{"x_min":0,"x_max":500,"ha":500,"o":"m 153 665 l 257 665 l 358 494 l 300 494 z"},"k":{"x_min":0,"x_max":481,"ha":481,"o":"m -100 -7 l -82 59 q -32 62 1 103 q 35 143 65 239 l 186 625 q 191 644 200 674 q 219 746 282 746 q 311 746 325 738 q 340 730 340 714 q 340 703 324 663 q 312 633 306 615 l 176 252 q 188 257 200 260 q 211 262 224 262 q 232 262 252 260 q 255 260 257 260 q 278 282 292 309 q 307 337 316 376 q 320 389 323 410 q 331 454 363 454 q 393 454 406 445 q 419 436 419 415 q 419 378 386 325 q 352 272 305 243 q 325 232 333 219 q 341 207 341 185 q 341 176 335 148 q 330 120 330 101 q 330 79 343 71 q 355 62 399 59 l 380 -7 q 293 -7 258 11 q 223 28 223 71 q 223 83 229 123 q 236 162 240 187 q 225 178 211 173 q 197 169 183 169 q 176 169 168 170 q 161 170 151 172 q 137 127 122 73 q 107 19 104 11 q 98 0 84 -4 q 71 -9 39 -9 q 19 -9 11 -5 q 3 -1 3 8 q 3 13 6 21 q 9 29 15 41 q -7 19 -35 7 q -64 -5 -100 -7 z"},"u":{"x_min":0,"x_max":531,"ha":531,"o":"m -100 -7 l -81 59 q -52 61 -25 68 q 1 76 27 91 q 27 94 27 98 q 26 102 26 109 q 26 157 78 306 q 87 334 92 349 q 97 363 105 386 q 130 464 155 464 q 188 464 220 451 q 252 439 252 425 q 252 419 229 371 q 206 322 188 277 q 157 203 145 165 q 132 126 132 108 q 132 93 140 85 q 147 77 162 77 q 195 77 238 131 q 281 185 319 276 q 341 325 360 392 q 379 461 414 461 q 446 461 470 450 q 495 439 495 425 q 495 419 472 370 q 450 320 433 276 q 409 214 397 172 q 386 130 386 104 q 386 80 399 70 q 412 61 449 59 l 431 -7 l 421 -7 q 352 -7 324 10 q 297 26 297 67 q 297 83 303 108 q 308 132 320 172 q 248 64 205 29 q 163 -7 116 -7 q 84 -7 64 4 q 43 15 35 36 q 6 17 -25 7 q -57 -3 -100 -7 z"},"]":{"x_min":0,"x_max":417,"ha":417,"o":"m 378 750 q 401 750 413 741 q 424 731 424 712 q 424 705 422 696 q 420 686 417 675 l 154 -153 q 143 -188 128 -201 q 113 -214 85 -214 l -60 -214 q -76 -214 -84 -207 q -92 -200 -92 -186 q -92 -164 -78 -153 q -63 -143 -31 -143 l 39 -143 q 57 -143 65 -137 q 73 -131 77 -117 l 313 634 q 316 643 317 650 q 319 657 319 660 q 319 670 314 675 q 309 679 291 679 l 220 679 q 204 679 197 686 q 189 692 189 706 q 189 729 202 740 q 216 750 249 750 z"},"U":{"x_min":0,"x_max":929,"ha":929,"o":"m 708 389 q 579 153 495 72 q 411 -9 311 -9 q 267 -9 242 14 q 218 36 218 78 q 218 110 250 195 q 257 216 261 227 l 349 468 l 351 474 q 385 569 385 598 q 385 625 367 640 q 350 656 320 656 q 263 656 221 598 q 178 540 178 465 q 178 440 184 424 q 190 408 202 399 q 201 388 189 381 q 177 374 158 374 q 122 374 99 405 q 76 435 76 485 q 76 594 156 675 q 236 755 349 755 q 422 755 465 715 q 508 676 508 609 q 508 585 500 549 q 492 513 475 465 l 373 174 q 367 156 363 142 q 360 127 360 120 q 360 108 365 104 q 369 100 381 100 q 428 100 513 204 q 599 308 679 469 q 709 529 734 592 q 759 656 774 711 q 774 712 775 715 q 787 760 817 760 q 859 760 881 751 q 903 742 903 725 q 903 714 897 695 q 891 676 889 669 l 794 297 q 775 222 766 177 q 757 131 757 108 q 757 85 779 73 q 801 62 848 59 l 829 -7 q 724 -7 678 20 q 632 47 632 109 q 632 139 649 204 q 667 269 708 389 z"},"o":{"x_min":0,"x_max":444,"ha":444,"o":"m 297 297 q 272 301 260 315 q 247 329 247 353 q 247 388 267 410 q 286 433 316 433 q 349 433 367 407 q 385 380 385 333 q 385 274 366 213 q 347 151 313 100 q 277 45 235 18 q 194 -9 146 -9 q 111 -9 86 0 q 60 9 42 28 q 10 12 -25 3 q -59 -5 -100 -7 l -81 59 q -54 61 -32 66 q -11 71 6 81 q 0 97 -3 115 q -6 133 -6 153 q -6 207 16 265 q 39 323 77 368 q 111 408 158 433 q 205 458 245 458 q 256 458 262 453 q 268 449 268 441 q 268 430 244 407 q 221 384 208 368 q 158 305 131 240 q 104 176 104 119 q 104 92 116 77 q 128 62 149 62 q 199 62 247 134 q 295 206 297 297 z"},"N":{"x_min":0,"x_max":853,"ha":853,"o":"m 423 438 q 522 612 595 685 q 668 759 739 759 q 784 759 812 732 q 839 705 839 660 q 839 614 771 410 q 754 357 745 329 q 738 306 724 266 q 685 150 685 121 q 685 89 705 75 q 724 62 772 59 l 753 -7 l 735 -7 q 651 -7 607 26 q 563 58 563 121 q 563 177 630 359 q 654 425 667 461 q 691 527 701 564 q 711 600 711 619 q 711 634 705 641 q 699 648 686 648 q 667 648 637 622 q 608 596 568 543 q 508 463 459 384 q 410 305 376 236 q 327 135 289 30 q 280 6 278 4 q 272 -4 254 -9 q 237 -14 211 -14 q 185 -14 174 -9 q 164 -3 164 10 q 164 24 197 98 q 213 135 223 157 q 281 292 314 406 q 347 521 347 580 q 347 612 332 630 q 316 648 289 648 q 242 648 206 591 q 169 534 169 457 q 169 433 174 409 q 179 385 189 358 q 181 353 171 350 q 162 347 151 347 q 110 347 89 378 q 68 409 68 468 q 68 584 139 670 q 211 755 307 755 q 373 755 412 711 q 451 667 451 594 q 451 565 444 527 q 438 489 423 438 z"},"+":{"x_min":0,"x_max":833,"ha":833,"o":"m 375 596 l 458 596 l 458 339 l 709 339 l 709 258 l 458 258 l 458 0 l 375 0 l 375 258 l 124 258 l 124 339 l 375 339 z"},"G":{"x_min":0,"x_max":653,"ha":653,"o":"m 440 294 q 393 250 342 226 q 291 202 244 202 q 191 202 160 236 q 128 270 128 327 q 128 364 149 422 q 171 479 211 548 q 207 547 200 546 q 180 544 173 544 q 133 544 110 562 q 87 581 87 613 q 87 619 89 628 q 92 637 97 651 q 122 646 146 644 q 169 641 192 641 q 211 641 234 643 q 257 646 290 651 q 339 705 387 732 q 435 760 480 760 q 516 760 535 742 q 555 725 555 693 q 555 645 505 617 q 456 590 328 571 q 291 508 270 456 q 249 404 249 375 q 249 347 264 331 q 279 316 307 316 q 339 316 374 335 q 409 354 442 391 q 475 426 498 464 q 522 503 530 503 q 554 503 577 489 q 600 475 600 461 q 600 452 586 411 q 581 393 577 382 q 558 322 532 228 q 506 133 496 100 q 451 -41 373 -106 q 296 -172 177 -172 q 96 -172 44 -137 q -8 -102 -8 -50 q -8 -22 6 -3 q 21 17 44 21 q 65 -28 94 -49 q 124 -70 168 -70 q 268 -70 329 10 q 390 90 440 294 z"},"q":{"x_min":0,"x_max":555,"ha":555,"o":"m 289 119 q 247 52 204 22 q 161 -9 109 -9 q 82 -9 62 -1 q 41 7 29 22 q 4 9 -27 2 q -58 -5 -100 -7 l -81 59 q -56 61 -35 66 q -14 71 5 80 q 3 91 3 103 q 2 115 2 126 q 2 182 26 241 q 51 301 94 349 q 136 396 185 423 q 233 450 276 450 q 300 450 323 442 q 346 435 371 418 q 376 441 385 450 q 394 458 413 458 q 449 458 467 450 q 485 441 485 425 q 485 423 483 416 q 482 409 479 399 l 373 46 q 398 51 465 58 q 471 59 474 59 l 455 -7 q 452 -7 447 -8 q 379 -15 354 -22 q 324 -124 312 -205 q 311 -208 311 -209 q 305 -238 292 -247 q 278 -255 247 -255 q 212 -255 200 -249 q 188 -243 188 -226 q 188 -217 197 -188 q 202 -173 204 -165 z m 353 359 q 342 367 333 370 q 324 373 312 373 q 279 373 247 354 q 215 334 186 296 q 152 252 132 206 q 113 159 113 122 q 113 99 122 86 q 132 74 149 74 q 195 74 253 153 q 311 232 353 359 z"},"d":{"x_min":0,"x_max":546,"ha":546,"o":"m -100 -7 l -81 59 q -54 61 -33 66 q -12 71 5 81 q 3 92 2 104 q 0 116 0 131 q 0 187 22 243 q 43 298 83 344 q 130 400 185 429 q 239 458 296 458 q 319 458 340 452 q 361 447 384 435 l 460 646 q 464 655 470 673 q 497 752 545 752 q 584 752 601 744 q 618 736 618 718 q 618 709 604 679 q 594 660 589 649 l 501 446 q 453 335 422 236 q 392 138 392 109 q 392 83 406 72 q 421 62 464 59 l 445 -7 l 437 -7 q 360 -7 329 9 q 297 25 297 64 q 297 81 303 106 q 309 131 323 170 q 272 80 221 35 q 169 -9 113 -9 q 85 -9 63 1 q 41 10 30 26 q 11 12 -21 4 q -53 -4 -100 -7 z m 358 366 q 350 370 341 372 q 333 374 325 374 q 290 374 254 351 q 218 327 182 281 q 150 241 131 196 q 111 151 111 122 q 111 100 122 87 q 133 74 150 74 q 193 74 247 150 q 301 226 358 366 z"},"1":{"x_min":0,"x_max":528,"ha":528,"o":"m 299 588 q 257 557 225 539 q 193 521 181 521 q 170 521 156 540 q 141 559 141 574 q 141 589 225 643 l 241 653 q 252 660 272 673 q 365 731 388 731 q 407 731 420 721 q 434 711 434 698 q 434 695 391 547 q 347 398 306 239 q 288 168 271 97 q 255 26 254 23 q 249 7 240 2 q 232 -2 199 -2 q 166 -2 152 6 q 138 14 138 32 q 138 52 170 164 q 202 275 299 588 z"},"5":{"x_min":0,"x_max":528,"ha":528,"o":"m 293 625 l 276 578 q 250 506 238 474 q 325 456 373 401 q 421 347 421 267 q 421 153 336 72 q 252 -10 127 -10 q 84 -10 47 -4 q 9 2 -15 13 q -35 21 -41 33 q -47 45 -47 71 q -47 102 -38 118 q -29 134 -12 134 q -4 134 46 119 q 96 104 139 104 q 208 104 254 149 q 300 194 300 262 q 300 311 272 340 q 245 370 191 378 q 178 380 156 380 q 119 381 119 398 q 119 401 149 489 q 180 577 219 683 l 220 687 q 237 732 278 732 q 285 732 327 730 q 370 728 406 728 q 461 728 513 730 q 521 731 523 731 q 531 731 534 726 q 536 721 536 709 q 536 664 512 643 q 488 622 435 622 q 417 622 381 623 q 345 624 293 625 z"}}}
